<?xml version="1.0" encoding="UTF-8" standalone="no"?>
<!-- Created with Inkscape (http://www.inkscape.org/) -->

<svg
   xmlns:dc="http://purl.org/dc/elements/1.1/"
   xmlns:cc="http://creativecommons.org/ns#"
   xmlns:rdf="http://www.w3.org/1999/02/22-rdf-syntax-ns#"
   xmlns:svg="http://www.w3.org/2000/svg"
   xmlns="http://www.w3.org/2000/svg"
   xmlns:sodipodi="http://sodipodi.sourceforge.net/DTD/sodipodi-0.dtd"
   xmlns:inkscape="http://www.inkscape.org/namespaces/inkscape"
   width="400mm"
   height="200mm"
   viewBox="0 0 1417.3228 708.66141"
   id="svg2"
   version="1.1"
   inkscape:version="0.91 r13725"
   sodipodi:docname="logo.svg">
  <defs
     id="defs4">
    <inkscape:path-effect
       effect="skeletal"
       id="path-effect3455"
       is_visible="true"
       pattern="m -6.1035156e-5,348.70079 c 0,-2.76 2.240000035156,-5 5.000000035156,-5 2.76,0 5,2.24 5,5 0,2.76 -2.24,5 -5,5 -2.76,0 -5.000000035156,-2.24 -5.000000035156,-5 z"
       copytype="single_stretched"
       prop_scale="1"
       scale_y_rel="false"
       spacing="0"
       normal_offset="0"
       tang_offset="0"
       prop_units="false"
       vertical_pattern="false"
       fuse_tolerance="0" />
    <inkscape:path-effect
       effect="skeletal"
       id="path-effect3450"
       is_visible="true"
       pattern="m 27.832447,250.6406 c 0,-2.76 2.24,-5 5,-5 2.76,0 5,2.24 5,5 0,2.76 -2.24,5 -5,5 -2.76,0 -5,-2.24 -5,-5 z"
       copytype="single_stretched"
       prop_scale="1"
       scale_y_rel="false"
       spacing="0"
       normal_offset="0"
       tang_offset="0"
       prop_units="false"
       vertical_pattern="false"
       fuse_tolerance="0" />
    <inkscape:path-effect
       effect="skeletal"
       id="path-effect3436"
       is_visible="true"
       pattern="m -6.1035156e-5,348.70079 c 0,-2.76 2.240000035156,-5 5.000000035156,-5 2.76,0 5,2.24 5,5 0,2.76 -2.24,5 -5,5 -2.76,0 -5.000000035156,-2.24 -5.000000035156,-5 z"
       copytype="single_stretched"
       prop_scale="1"
       scale_y_rel="false"
       spacing="0"
       normal_offset="0"
       tang_offset="0"
       prop_units="false"
       vertical_pattern="false"
       fuse_tolerance="0" />
    <inkscape:path-effect
       effect="spiro"
       id="path-effect3392"
       is_visible="true" />
    <inkscape:path-effect
       effect="skeletal"
       id="path-effect3350"
       is_visible="true"
       pattern="m 282.85708,348.70079 c 0,-2.76 2.24,-5 5,-5 2.76,0 5,2.24 5,5 0,2.76 -2.24,5 -5,5 -2.76,0 -5,-2.24 -5,-5 z"
       copytype="single_stretched"
       prop_scale="1"
       scale_y_rel="false"
       spacing="0"
       normal_offset="0"
       tang_offset="0"
       prop_units="false"
       vertical_pattern="false"
       fuse_tolerance="0" />
    <inkscape:path-effect
       effect="skeletal"
       id="path-effect3342"
       is_visible="true"
       pattern="m 14.285653,271.55794 c 0,-2.76 2.24,-5 5,-5 2.76,0 5,2.24 5,5 0,2.76 -2.24,5 -5,5 -2.76,0 -5,-2.24 -5,-5 z"
       copytype="single_stretched"
       prop_scale="1"
       scale_y_rel="false"
       spacing="0"
       normal_offset="0"
       tang_offset="0"
       prop_units="false"
       vertical_pattern="false"
       fuse_tolerance="0" />
    <inkscape:path-effect
       effect="skeletal"
       id="path-effect3350-1"
       is_visible="true"
       pattern="m 1566.9163,340.32055 c 0,-2.76 2.24,-5 5,-5 2.76,0 5,2.24 5,5 0,2.76 -2.24,5 -5,5 -2.76,0 -5,-2.24 -5,-5 z"
       copytype="single_stretched"
       prop_scale="1"
       scale_y_rel="false"
       spacing="0"
       normal_offset="0"
       tang_offset="0"
       prop_units="false"
       vertical_pattern="false"
       fuse_tolerance="0" />
  </defs>
  <sodipodi:namedview
     id="base"
     pagecolor="#ffffff"
     bordercolor="#666666"
     borderopacity="1.0"
     inkscape:pageopacity="0.0"
     inkscape:pageshadow="2"
     inkscape:zoom="0.49497475"
     inkscape:cx="473.68424"
     inkscape:cy="199.8743"
     inkscape:document-units="px"
     inkscape:current-layer="layer1"
     showgrid="false"
     showguides="false"
     inkscape:window-width="1366"
     inkscape:window-height="715"
     inkscape:window-x="0"
     inkscape:window-y="30"
     inkscape:window-maximized="1" />
  <metadata
     id="metadata7">
    <rdf:RDF>
      <cc:Work
         rdf:about="">
        <dc:format>image/svg+xml</dc:format>
        <dc:type
           rdf:resource="http://purl.org/dc/dcmitype/StillImage" />
        <dc:title></dc:title>
      </cc:Work>
    </rdf:RDF>
  </metadata>
  <g
     inkscape:label="Capa 1"
     inkscape:groupmode="layer"
     id="layer1"
     transform="translate(0,-343.70079)">
    <text
       xml:space="preserve"
       style="font-style:normal;font-weight:normal;font-size:40px;line-height:0%;font-family:sans-serif;letter-spacing:0px;word-spacing:0px;fill:#000000;fill-opacity:1;stroke:none;stroke-width:1px;stroke-linecap:butt;stroke-linejoin:miter;stroke-opacity:1"
       x="62.857082"
       y="620.93365"
       id="text3336"
       sodipodi:linespacing="0%"><tspan
         sodipodi:role="line"
         id="tspan3338"
         x="62.857082"
         y="620.93365"
         style="font-style:normal;font-variant:normal;font-weight:normal;font-stretch:normal;font-size:200px;font-family:'Emilys Candy';-inkscape-font-specification:'Emilys Candy'">Delicious Blog</tspan></text>
    <path
       style="fill:#000000;fill-rule:evenodd;stroke:none;stroke-width:1px;stroke-linecap:butt;stroke-linejoin:miter;stroke-opacity:1"
       d="M 77.142796,679.50509 C 83.748278,666.59841 353.16049,851.81945 691.45763,853.79088 1029.7547,855.76231 1295.016,649.95942 1317.1427,678.07651 1360.6981,710.47932 1031.125,884.33357 692.82792,882.36214 354.53079,880.39071 71.678007,690.18293 77.142796,679.50509 Z"
       id="path3434"
       inkscape:connector-curvature="0"
       sodipodi:nodetypes="sscss" />
    <path
       style="fill:#000000;fill-rule:evenodd;stroke:none;stroke-width:1px;stroke-linecap:butt;stroke-linejoin:miter;stroke-opacity:1"
       d="m 1057.8324,802.87347 c 0.8183,-0.47726 7.8477,4.56225 16.9485,17.7166 8.2007,11.85331 21.5038,33.1915 40.188,50.72864 7.319,6.88357 17.7995,16.1332 27.3718,21.82327 8.3645,4.98459 15.0313,9.16573 25.0038,12.72968 17.3102,6.15233 37.768,7.63447 56.7648,1.46066 0.057,-0.0187 0.1149,-0.0374 0.1724,-0.0563 17.6919,-5.76537 32.4607,-17.7229 41.0429,-32.32453 4.9361,-8.33364 7.9621,-17.49753 9.357,-26.52755 1.7514,-11.26637 0.9724,-22.52212 -1.0375,-32.70229 -5.1423,-26.31828 -24.4657,-48.91494 -33.119,-61.70662 -9.3142,-13.76882 -9.9153,-20.42807 -9.1211,-21.1416 0.4708,-0.42296 7.8712,2.58602 18.5199,15.76976 9.973,12.34718 25.2196,37.23502 31.8105,65.33461 2.5293,10.87813 3.6746,23.11549 2.0111,35.74164 -1.3443,10.13446 -4.5838,20.49131 -10.0822,30.08544 -9.7141,16.83355 -26.215,30.46579 -46.2893,36.98099 -0.065,0.021 -0.1299,0.0419 -0.1949,0.0627 -21.4953,6.88852 -44.0896,5.13794 -63.122,-1.95986 -10.425,-3.87264 -20.1107,-8.50162 -28.9567,-14.02257 -10.1202,-6.3306 -18.8837,-13.68508 -26.3303,-21.17178 -19.0947,-19.23904 -41.1996,-42.70277 -48.556,-55.60276 -7.9853,-14.00274 -3.0132,-20.84987 -2.3817,-21.21818 z"
       id="path3448"
       inkscape:connector-curvature="0"
       sodipodi:nodetypes="csccccccccscsccccccccscc" />
    <path
       style="fill:#000000;fill-rule:evenodd;stroke:none;stroke-width:1px;stroke-linecap:butt;stroke-linejoin:miter;stroke-opacity:1"
       d="m 1157.1296,783.66165 c 2.7295,-0.40906 11.2771,18.226 22.5686,34.81473 11.2915,16.58873 32.241,22.72618 18.3426,25.28935 -2.7142,0.50056 -14.3076,-3.57879 -25.5991,-20.16752 -11.2915,-16.58873 -25.6749,-38.38354 -15.3121,-39.93656 z"
       id="path3453"
       inkscape:connector-curvature="0"
       sodipodi:nodetypes="sssss" />
    <path
       style="fill:#000000;fill-rule:evenodd;stroke:none;stroke-width:1px;stroke-linecap:butt;stroke-linejoin:miter;stroke-opacity:1"
       d="m 1352.7184,709.71029 c -4.7764,-3.89502 3.6536,-17.9602 -5.9961,-35.55474 -9.6496,-17.59454 -39.5508,-18.82837 -28.9664,-28.19357 4.2649,-3.77366 30.5662,5.18609 40.2159,22.78063 9.6497,17.59454 2.8674,47.58992 -5.2534,40.96768 z"
       id="path3453-4"
       inkscape:connector-curvature="0"
       sodipodi:nodetypes="sssss" />
    <path
       style="fill:#ff2a2a;fill-opacity:1;stroke:#d40000;stroke-width:1"
       d="m 1187.6363,566.89368 c -14.3645,-1.74298 -26.8716,-6.38325 -42.2004,-15.65685 -6.9301,-4.1926 -9.0985,-5.65824 -13.9716,-9.4438 -14.0718,-10.93124 -26.5444,-23.45167 -37.0818,-37.22401 -7.9085,-10.33632 -20.1967,-28.13684 -19.722,-28.56887 0.1635,-0.14876 4.3151,-1.59699 9.2258,-3.21828 18.9591,-6.25941 45.3716,-15.83376 62.8403,-22.77916 l 7.1259,-2.83323 0.6711,2.00334 c 2.1255,6.34581 11.6039,22.27508 19.9451,33.51946 6.3984,8.62545 14.7849,15.39435 21.0643,17.00135 2.2002,0.56307 5.17,0.0858 6.4016,-1.02886 1.5807,-1.4305 0.7288,-2.50683 -6.7135,-8.48157 -6.5622,-5.2683 -11.2165,-9.74233 -14.1738,-13.62509 -2.4791,-3.25492 -7.3233,-11.00107 -13.7514,-21.98909 -2.8153,-4.8125 -5.3556,-9.11198 -5.6451,-9.5544 -0.5038,-0.77 -0.4672,-0.8287 0.8546,-1.37214 23.5794,-9.69411 52.1109,-22.84144 71.2024,-32.81007 l 5.1785,-2.70399 0.6072,0.80958 c 3.2258,4.30145 14.9489,21.02173 17.0943,24.38102 14.16,22.17185 19.3496,38.95391 18.8118,60.83313 -0.2482,10.09846 -1.5803,17.30344 -4.7983,25.95258 -9.4825,25.48658 -33.7696,43.6477 -62.7864,46.94979 -4.3159,0.49115 -15.5428,0.40166 -20.1786,-0.16084 z"
       id="path3490"
       inkscape:connector-curvature="0"
       transform="translate(-6.1035156e-5,343.70079)" />
    <path
       style="fill:#000000;fill-rule:evenodd;stroke:none;stroke-width:1px;stroke-linecap:butt;stroke-linejoin:miter;stroke-opacity:1"
       d="m 55.137872,709.17442 c 4.93625,-3.89502 -3.77587,-17.9602 6.19677,-35.55474 9.97254,-17.59454 40.874438,-18.82837 29.93582,-28.19357 -4.40764,-3.77366 -31.58916,5.18609 -41.5618,22.78063 -9.97265,17.59454 -2.96336,47.58992 5.42921,40.96768 z"
       id="path3453-4-1"
       inkscape:connector-curvature="0"
       sodipodi:nodetypes="sssss" />
  </g>
</svg>
